<svg preserveAspectRatio="xMidYMid" style="max-height: 500px" viewBox="95.84073608398438 47.48433833666739 312.0990002441406 66.37365714208478" xmlns="http://www.w3.org/2000/svg" width="312.0990002441406" height="66.37365714208478"><defs><filter id="editing-vr"><feFlood result="c1" flood-opacity="0.7" flood-color="#f00"/><feFlood result="c3" flood-opacity="0.7" flood-color="#00f"/><feComposite result="text-c1" in2="SourceAlpha" in="c1" operator="in"/><feComposite result="text-c3" in2="SourceAlpha" in="c3" operator="in"/><feOffset result="text1" dy="-1" dx="5" in="text-c1"/><feOffset result="text3" dy="1" dx="-5" in="text-c3"/><feBlend result="text4" mode="multiply" in2="text1" in="SourceGraphic"/><feBlend mode="multiply" in2="text3" in="text4"/></filter></defs><g filter="url(#editing-vr)"><g transform="translate(101.78000974655151, 98.68000030517578)"><path fill="#444" d="M27.01-20.61L39.94-21.76L39.94-21.76Q35.33-11.65 35.33 0.06L35.33 0.06L35.33 0.06Q33.60 1.28 31.07 1.28L31.07 1.28L31.07 1.28Q28.54 1.28 26.94 0.10L26.94 0.10L26.94 0.10Q25.34-1.09 25.02-2.30L25.02-2.30L25.02-2.30Q23.42-0.64 20.83 0.32L20.83 0.32L20.83 0.32Q18.24 1.28 15.49 1.28L15.49 1.28L15.49 1.28Q12.74 1.28 10.34 0.38L10.34 0.38L10.34 0.38Q7.94-0.51 6.08-2.50L6.08-2.50L6.08-2.50Q1.98-6.85 1.98-15.10L1.98-15.10L1.98-15.10Q1.98-27.90 8.83-35.58L8.83-35.58L8.83-35.58Q15.87-43.52 28.35-43.52L28.35-43.52L28.35-43.52Q36.99-43.52 40.06-39.04L40.06-39.04L40.06-39.04Q41.02-37.63 41.02-35.94L41.02-35.94L41.02-35.94Q41.02-34.24 40.29-32.80L40.29-32.80L40.29-32.80Q39.55-31.36 38.40-30.21L38.40-30.21L38.40-30.21Q35.65-27.65 32.26-27.65L32.26-27.65L32.26-27.65Q30.91-27.65 29.63-28.10L29.63-28.10L29.63-28.10Q29.89-30.02 29.89-32.26L29.89-32.26L29.89-32.26Q29.89-34.50 29.73-35.52L29.73-35.52L29.73-35.52Q29.57-36.54 29.18-37.38L29.18-37.38L29.18-37.38Q28.35-39.10 26.53-39.10L26.53-39.10L26.53-39.10Q24.70-39.10 22.69-37.15L22.69-37.15L22.69-37.15Q20.67-35.20 19.07-32L19.07-32L19.07-32Q15.55-24.83 15.55-16.19L15.55-16.19L15.55-16.19Q15.55-12.22 17.09-9.41L17.09-9.41L17.09-9.41Q18.75-6.34 21.70-6.34L21.70-6.34L21.70-6.34Q22.72-6.34 23.65-6.85L23.65-6.85L23.65-6.85Q24.58-7.36 24.96-7.74L24.96-7.74L27.01-20.61ZM63.62-2.69L63.62-2.69L63.62-2.69Q60.54 1.28 52.93 1.28L52.93 1.28L52.93 1.28Q48.96 1.28 46.08-1.12L46.08-1.12L46.08-1.12Q43.20-3.52 43.20-6.98L43.20-6.98L43.20-6.98Q43.20-8.90 43.39-9.86L43.39-9.86L47.68-32.64L60.67-33.92L56-9.22L56-9.22Q55.74-7.81 55.74-6.98L55.74-6.98L55.74-6.98Q55.74-3.26 57.98-3.26L57.98-3.26L57.98-3.26Q60.48-3.26 62.27-6.66L62.27-6.66L62.27-6.66Q62.85-7.74 63.10-9.15L63.10-9.15L67.65-32.64L80.26-33.92L75.52-8.96L75.52-8.96Q75.33-8 75.33-6.98L75.33-6.98L75.33-6.98Q75.33-5.95 75.90-4.83L75.90-4.83L75.90-4.83Q76.48-3.71 78.34-3.46L78.34-3.46L78.34-3.46Q77.95-1.92 76.61-0.90L76.61-0.90L76.61-0.90Q73.79 1.28 70.75 1.28L70.75 1.28L70.75 1.28Q67.71 1.28 65.92 0.19L65.92 0.19L65.92 0.19Q64.13-0.90 63.62-2.69ZM110.78 1.28L110.78 1.28L110.78 1.28Q103.04 1.28 103.04-4.74L103.04-4.74L103.04-4.74Q103.10-6.40 103.62-9.22L103.62-9.22L104.77-15.10L104.77-15.10Q106.50-23.42 106.50-25.28L106.50-25.28L106.50-25.28Q106.50-28.99 104.32-28.99L104.32-28.99L104.32-28.99Q100.67-28.99 98.75-19.46L98.75-19.46L94.98 0L82.11 1.28L88.77-32.70L99.26-33.92L98.24-27.65L98.24-27.65Q101.25-33.92 110.46-33.92L110.46-33.92L110.46-33.92Q114.94-33.92 116.83-32.03L116.83-32.03L116.83-32.03Q118.72-30.14 118.72-25.92L118.72-25.92L118.72-25.92Q118.72-21.95 116.67-12.67L116.67-12.67L116.67-12.67Q115.71-8.51 115.71-6.94L115.71-6.94L115.71-6.94Q115.71-5.38 116.58-4.48L116.58-4.48L116.58-4.48Q117.44-3.58 118.72-3.46L118.72-3.46L118.72-3.46Q118.08-1.28 115.87 0L115.87 0L115.87 0Q113.66 1.28 110.78 1.28ZM143.87-17.98L143.87-17.98L143.87-17.98Q146.18-22.08 146.18-26.24L146.18-26.24L146.18-26.24Q146.18-28.99 144.19-28.99L144.19-28.99L144.19-28.99Q142.66-28.99 141.06-26.37L141.06-26.37L141.06-26.37Q139.39-23.74 138.88-20.35L138.88-20.35L135.55 0L122.30 1.28L128.83-32.64L139.39-33.92L138.24-27.46L138.24-27.46Q141.38-33.92 148.42-33.92L148.42-33.92L148.42-33.92Q152.13-33.92 154.14-32L154.14-32L154.14-32Q156.16-30.08 156.16-26.14L156.16-26.14L156.16-26.14Q156.16-22.21 153.57-19.71L153.57-19.71L153.57-19.71Q150.98-17.22 146.56-17.22L146.56-17.22L146.56-17.22Q144.64-17.22 143.87-17.98ZM159.97-1.92L159.97-1.92L159.97-1.92Q158.46-3.58 157.79-6.21L157.79-6.21L157.79-6.21Q157.12-8.83 157.12-13.12L157.12-13.12L157.12-13.12Q157.12-17.41 158.59-21.31L158.59-21.31L158.59-21.31Q160.06-25.22 162.75-28.03L162.75-28.03L162.75-28.03Q168.26-33.92 177.34-33.92L177.34-33.92L177.34-33.92Q180.61-33.92 182.98-32.83L182.98-32.83L193.92-33.92L189.18-8.96L189.18-8.96Q188.99-8.19 188.99-6.78L188.99-6.78L188.99-6.78Q188.99-5.38 189.86-4.48L189.86-4.48L189.86-4.48Q190.72-3.58 192-3.46L192-3.46L192-3.46Q191.36-1.28 189.02 0L189.02 0L189.02 0Q186.69 1.28 184.06 1.28L184.06 1.28L184.06 1.28Q181.44 1.28 179.68 0.29L179.68 0.29L179.68 0.29Q177.92-0.70 177.41-2.37L177.41-2.37L177.41-2.37Q176.38-0.77 174.21 0.26L174.21 0.26L174.21 0.26Q172.03 1.28 169.12 1.28L169.12 1.28L169.12 1.28Q166.21 1.28 163.84 0.51L163.84 0.51L163.84 0.51Q161.47-0.26 159.97-1.92ZM173.47-27.90L173.47-27.90L173.47-27.90Q172.74-26.75 172.10-24.80L172.10-24.80L172.10-24.80Q171.46-22.85 170.40-17.63L170.40-17.63L170.40-17.63Q169.34-12.42 169.34-8.70L169.34-8.70L169.34-8.70Q169.34-4.99 169.92-3.90L169.92-3.90L169.92-3.90Q170.50-2.82 171.52-2.82L171.52-2.82L171.52-2.82Q173.57-2.82 175.07-4.77L175.07-4.77L175.07-4.77Q176.58-6.72 177.15-10.18L177.15-10.18L180.54-28.93L180.54-28.93Q179.20-30.08 177.63-30.08L177.63-30.08L177.63-30.08Q176.06-30.08 175.14-29.57L175.14-29.57L175.14-29.57Q174.21-29.06 173.47-27.90ZM196.54-3.07L196.54-3.07L204.48-44.80L217.47-46.08L215.49-36.29L215.49-36.29Q214.78-33.28 213.89-31.17L213.89-31.17L213.89-31.17Q215.30-32.96 218.37-33.66L218.37-33.66L218.37-33.66Q219.26-33.92 220.35-33.92L220.35-33.92L220.35-33.92Q226.30-33.92 229.57-30.30L229.57-30.30L229.57-30.30Q232.83-26.69 232.83-19.71L232.83-19.71L232.83-19.71Q232.83-10.62 227.65-4.93L227.65-4.93L227.65-4.93Q222.08 1.28 211.97 1.28L211.97 1.28L211.97 1.28Q204.99 1.28 199.74-1.02L199.74-1.02L199.74-1.02Q197.89-1.86 196.54-3.07ZM212.80-22.40L209.41-3.65L209.41-3.65Q210.75-2.50 212.42-2.50L212.42-2.50L212.42-2.50Q214.08-2.50 215.04-3.14L215.04-3.14L215.04-3.14Q216-3.78 216.70-5.06L216.70-5.06L216.70-5.06Q218.62-8.51 220.16-19.07L220.16-19.07L220.16-19.07Q220.61-22.08 220.61-25.09L220.61-25.09L220.61-25.09Q220.61-28.10 219.94-29.06L219.94-29.06L219.94-29.06Q219.26-30.02 217.98-30.02L217.98-30.02L217.98-30.02Q214.08-30.02 212.80-22.40L212.80-22.40ZM250.62 1.28L250.62 1.28L250.62 1.28Q236.54 1.28 236.54-11.97L236.54-11.97L236.54-11.97Q236.54-21.38 241.73-27.46L241.73-27.46L241.73-27.46Q247.23-33.92 256.77-33.92L256.77-33.92L256.77-33.92Q263.68-33.92 267.20-30.72L267.20-30.72L267.20-30.72Q270.72-27.52 270.72-20.80L270.72-20.80L270.72-20.80Q270.72-10.56 265.22-4.61L265.22-4.61L265.22-4.61Q259.84 1.28 250.62 1.28ZM252.29-26.56L252.29-26.56L252.29-26.56Q251.52-24.83 250.91-22.24L250.91-22.24L250.91-22.24Q250.30-19.65 249.54-15.55L249.54-15.55L249.54-15.55Q248.77-11.46 248.77-6.40L248.77-6.40L248.77-6.40Q248.77-4.74 249.31-3.65L249.31-3.65L249.31-3.65Q249.86-2.56 251.33-2.56L251.33-2.56L251.33-2.56Q252.80-2.56 253.73-3.26L253.73-3.26L253.73-3.26Q254.66-3.97 255.36-5.63L255.36-5.63L255.36-5.63Q256.64-8.58 257.66-14.05L257.66-14.05L257.66-14.05Q258.69-19.52 258.78-21.89L258.78-21.89L258.78-21.89Q258.88-24.26 258.88-26.02L258.88-26.02L258.88-26.02Q258.88-27.78 258.37-28.93L258.37-28.93L258.37-28.93Q257.86-30.08 256.42-30.08L256.42-30.08L256.42-30.08Q254.98-30.08 254.02-29.18L254.02-29.18L254.02-29.18Q253.06-28.29 252.29-26.56ZM289.79-3.52L289.79-3.52L289.79-3.52Q287.81 1.28 281.47 1.28L281.47 1.28L281.47 1.28Q278.27 1.28 276.22-0.96L276.22-0.96L276.22-0.96Q274.56-2.82 274.56-4.93L274.56-4.93L274.56-4.93Q274.56-9.73 276.80-20.22L276.80-20.22L281.47-44.80L294.46-46.08L288.26-13.70L288.26-13.70Q287.17-8.96 287.17-7.30L287.17-7.30L287.17-7.30Q287.17-3.65 289.79-3.52Z"/></g></g><style>text {
  font-size: 64px;
  font-family: Arial Black;
  dominant-baseline: central;
  text-anchor: middle;
}</style></svg>