<svg width="690.225048828125px" height="121.40498046875px" xmlns="http://www.w3.org/2000/svg" viewBox="-95.11252441406248 14.297509765625001 690.225048828125 121.40498046875" style="background: rgba(0, 0, 0, 0);" preserveAspectRatio="xMidYMid"><defs><filter id="editing-vr"><feFlood flood-color="#f00" flood-opacity="0.7" result="c1"></feFlood><feFlood flood-color="#00f" flood-opacity="0.7" result="c3"></feFlood><feComposite operator="in" in="c1" in2="SourceAlpha" result="text-c1"></feComposite><feComposite operator="in" in="c3" in2="SourceAlpha" result="text-c3"></feComposite><feOffset in="text-c1" dx="2" dy="-2" result="text1"></feOffset><feOffset in="text-c3" dx="-2" dy="2" result="text3"></feOffset><feBlend in="SourceGraphic" in2="text1" mode="multiply" result="text4"></feBlend><feBlend in="text4" in2="text3" mode="multiply"></feBlend></filter></defs><g filter="url(#editing-vr)"><g transform="translate(3.404989004135132, 99)"><path d="M47.17 1.28L47.17 1.28L47.17 1.28Q39.42 1.28 39.42-4.74L39.42-4.74L39.42-4.74Q39.42-7.36 40.54-12.45L40.54-12.45L40.54-12.45Q41.66-17.54 42.05-19.58L42.05-19.58L42.05-19.58Q42.94-24.26 42.94-25.73L42.94-25.73L42.94-25.73Q42.94-28.99 40.51-28.99L40.51-28.99L40.51-28.99Q38.91-28.99 37.38-26.78L37.38-26.78L37.38-26.78Q35.84-24.58 35.14-20.16L35.14-20.16L31.17 0L18.69 1.28L22.14-16.13L22.14-16.13Q22.72-19.01 23.23-22.27L23.23-22.27L23.23-22.27Q23.74-25.54 23.74-26.05L23.74-26.05L23.74-26.05Q23.74-28.99 21.57-28.99L21.57-28.99L21.57-28.99Q20.10-28.99 18.50-26.82L18.50-26.82L18.50-26.82Q16.90-24.64 16-20.16L16-20.16L12.10 0L-0.51 1.28L6.21-32.64L16.64-33.92L15.55-27.46L15.55-27.46Q17.22-30.91 20.29-32.42L20.29-32.42L20.29-32.42Q23.36-33.92 28.16-33.92L28.16-33.92L28.16-33.92Q30.91-33.92 32.70-32.58L32.70-32.58L32.70-32.58Q34.50-31.23 35.07-29.06L35.07-29.06L35.07-29.06Q36.16-31.30 38.94-32.61L38.94-32.61L38.94-32.61Q41.73-33.92 45.15-33.92L45.15-33.92L45.15-33.92Q48.58-33.92 50.27-33.18L50.27-33.18L50.27-33.18Q51.97-32.45 52.99-31.23L52.99-31.23L52.99-31.23Q54.72-28.99 54.72-24.90L54.72-24.90L54.72-24.90Q54.72-20.86 52.99-12.48L52.99-12.48L52.99-12.48Q52.10-8.38 52.10-6.88L52.10-6.88L52.10-6.88Q52.10-5.38 52.96-4.48L52.96-4.48L52.96-4.48Q53.82-3.58 55.10-3.46L55.10-3.46L55.10-3.46Q54.46-1.28 52.26 0L52.26 0L52.26 0Q50.05 1.28 47.17 1.28ZM75.39-3.52L75.39-3.52L75.39-3.52Q73.41 1.28 67.07 1.28L67.07 1.28L67.07 1.28Q63.81 1.28 61.76-0.96L61.76-0.96L61.76-0.96Q60.03-2.94 60.03-4.93L60.03-4.93L60.03-4.93Q60.03-10.11 62.40-20.22L62.40-20.22L64.77-32.64L77.76-33.92L73.86-13.70L73.86-13.70Q72.77-8.96 72.77-7.30L72.77-7.30L72.77-7.30Q72.77-3.65 75.39-3.52ZM65.92-41.54L65.92-41.54L65.92-41.54Q65.92-44.03 68-45.38L68-45.38L68-45.38Q70.08-46.72 73.09-46.72L73.09-46.72L73.09-46.72Q76.10-46.72 77.92-45.38L77.92-45.38L77.92-45.38Q79.74-44.03 79.74-41.54L79.74-41.54L79.74-41.54Q79.74-39.04 77.73-37.76L77.73-37.76L77.73-37.76Q75.71-36.48 72.70-36.48L72.70-36.48L72.70-36.48Q69.70-36.48 67.81-37.76L67.81-37.76L67.81-37.76Q65.92-39.04 65.92-41.54ZM100.99-33.92L100.99-33.92L100.99-33.92Q103.30-33.92 105.09-33.41L105.09-33.41L105.09-33.41Q105.15-33.66 105.28-34.37L105.28-34.37L105.60-36.35L105.60-36.35Q105.86-37.63 106.24-39.74L106.24-39.74L107.26-44.80L120-46.08L112.90-8.96L112.90-8.96Q112.83-8.58 112.83-7.94L112.83-7.94L112.83-6.91L112.83-6.91Q112.83-5.50 113.54-4.45L113.54-4.45L113.54-4.45Q114.24-3.39 115.39-3.39L115.39-3.39L115.39-3.39Q114.11-0.38 110.21 0.90L110.21 0.90L110.21 0.90Q108.86 1.28 106.98 1.28L106.98 1.28L106.98 1.28Q105.09 1.28 103.36 0.29L103.36 0.29L103.36 0.29Q101.63-0.70 101.12-2.37L101.12-2.37L101.12-2.37Q100.10-0.70 98.05 0.29L98.05 0.29L98.05 0.29Q96 1.28 93.02 1.28L93.02 1.28L93.02 1.28Q90.05 1.28 87.58 0.51L87.58 0.51L87.58 0.51Q85.12-0.26 83.58-1.92L83.58-1.92L83.58-1.92Q80.77-5.18 80.77-12.61L80.77-12.61L80.77-12.61Q80.77-22.21 86.40-28.03L86.40-28.03L86.40-28.03Q92.03-33.92 100.99-33.92ZM100.54-30.08L100.54-30.08L100.54-30.08Q98.18-30.08 96.90-27.52L96.90-27.52L96.90-27.52Q95.62-24.96 94.30-18.62L94.30-18.62L94.30-18.62Q92.99-12.29 92.99-6.59L92.99-6.59L92.99-6.59Q92.99-2.69 95.30-2.69L95.30-2.69L95.30-2.69Q97.34-2.69 98.78-4.74L98.78-4.74L98.78-4.74Q100.22-6.78 100.80-10.18L100.80-10.18L104.26-28.93L104.26-28.93Q102.91-30.08 100.54-30.08ZM139.97-22.46L139.97-22.46L139.97-22.46Q140.86-24.83 140.86-26.88L140.86-26.88L140.86-26.88Q140.86-30.66 137.79-30.66L137.79-30.66L137.79-30.66Q136.19-30.66 134.88-29.22L134.88-29.22L134.88-29.22Q133.57-27.78 133.57-25.98L133.57-25.98L133.57-25.98Q133.57-24.70 134.59-23.68L134.59-23.68L134.59-23.68Q136.06-22.27 139.84-19.97L139.84-19.97L139.84-19.97Q143.62-17.66 145.06-15.78L145.06-15.78L145.06-15.78Q146.50-13.89 146.50-11.30L146.50-11.30L146.50-11.30Q146.50-8.70 145.25-6.34L145.25-6.34L145.25-6.34Q144-3.97 141.76-2.30L141.76-2.30L141.76-2.30Q136.96 1.28 129.28 1.28L129.28 1.28L129.28 1.28Q125.12 1.28 121.92-0.90L121.92-0.90L121.92-0.90Q118.72-3.01 118.72-5.50L118.72-5.50L118.72-5.50Q118.72-8 120.54-9.47L120.54-9.47L120.54-9.47Q122.37-10.94 125.06-10.94L125.06-10.94L125.06-10.94Q127.74-10.94 129.41-9.92L129.41-9.92L129.41-9.92Q128.58-7.81 128.58-6.40L128.58-6.40L128.58-6.40Q128.58-2.18 132.16-2.18L132.16-2.18L132.16-2.18Q133.70-2.18 134.72-3.14L134.72-3.14L134.72-3.14Q135.74-4.10 135.74-5.76L135.74-5.76L135.74-5.76Q135.74-9.02 130.24-12.48L130.24-12.48L130.24-12.48Q125.76-15.42 124.74-16.58L124.74-16.58L124.74-16.58Q123.01-18.62 123.01-21.18L123.01-21.18L123.01-21.18Q123.01-23.74 124.22-26.18L124.22-26.18L124.22-26.18Q125.44-28.61 127.68-30.34L127.68-30.34L127.68-30.34Q132.35-33.92 140.48-33.92L140.48-33.92L140.48-33.92Q144.64-33.92 147.10-32.26L147.10-32.26L147.10-32.26Q149.57-30.59 149.57-27.78L149.57-27.78L149.57-27.78Q149.57-24.96 147.87-23.36L147.87-23.36L147.87-23.36Q146.18-21.76 143.10-21.76L143.10-21.76L143.10-21.76Q140.99-21.76 139.97-22.46ZM165.89 1.28L165.89 1.28L165.89 1.28Q151.81 1.28 151.81-11.97L151.81-11.97L151.81-11.97Q151.81-21.38 156.99-27.46L156.99-27.46L156.99-27.46Q162.50-33.92 172.03-33.92L172.03-33.92L172.03-33.92Q178.94-33.92 182.46-30.72L182.46-30.72L182.46-30.72Q185.98-27.52 185.98-20.80L185.98-20.80L185.98-20.80Q185.98-10.56 180.48-4.61L180.48-4.61L180.48-4.61Q175.10 1.28 165.89 1.28ZM167.55-26.56L167.55-26.56L167.55-26.56Q166.78-24.83 166.18-22.24L166.18-22.24L166.18-22.24Q165.57-19.65 164.80-15.55L164.80-15.55L164.80-15.55Q164.03-11.46 164.03-6.40L164.03-6.40L164.03-6.40Q164.03-4.74 164.58-3.65L164.58-3.65L164.58-3.65Q165.12-2.56 166.59-2.56L166.59-2.56L166.59-2.56Q168.06-2.56 168.99-3.26L168.99-3.26L168.99-3.26Q169.92-3.97 170.62-5.63L170.62-5.63L170.62-5.63Q171.90-8.58 172.93-14.05L172.93-14.05L172.93-14.05Q173.95-19.52 174.05-21.89L174.05-21.89L174.05-21.89Q174.14-24.26 174.14-26.02L174.14-26.02L174.14-26.02Q174.14-27.78 173.63-28.93L173.63-28.93L173.63-28.93Q173.12-30.08 171.68-30.08L171.68-30.08L171.68-30.08Q170.24-30.08 169.28-29.18L169.28-29.18L169.28-29.18Q168.32-28.29 167.55-26.56ZM235.84 1.28L235.84 1.28L235.84 1.28Q228.10 1.28 228.10-4.74L228.10-4.74L228.10-4.74Q228.10-7.36 229.22-12.45L229.22-12.45L229.22-12.45Q230.34-17.54 230.72-19.58L230.72-19.58L230.72-19.58Q231.62-24.26 231.62-25.73L231.62-25.73L231.62-25.73Q231.62-28.99 229.18-28.99L229.18-28.99L229.18-28.99Q227.58-28.99 226.05-26.78L226.05-26.78L226.05-26.78Q224.51-24.58 223.81-20.16L223.81-20.16L219.84 0L207.36 1.28L210.82-16.13L210.82-16.13Q211.39-19.01 211.90-22.27L211.90-22.27L211.90-22.27Q212.42-25.54 212.42-26.05L212.42-26.05L212.42-26.05Q212.42-28.99 210.24-28.99L210.24-28.99L210.24-28.99Q208.77-28.99 207.17-26.82L207.17-26.82L207.17-26.82Q205.57-24.64 204.67-20.16L204.67-20.16L200.77 0L188.16 1.28L194.88-32.64L205.31-33.92L204.22-27.46L204.22-27.46Q205.89-30.91 208.96-32.42L208.96-32.42L208.96-32.42Q212.03-33.92 216.83-33.92L216.83-33.92L216.83-33.92Q219.58-33.92 221.38-32.58L221.38-32.58L221.38-32.58Q223.17-31.23 223.74-29.06L223.74-29.06L223.74-29.06Q224.83-31.30 227.62-32.61L227.62-32.61L227.62-32.61Q230.40-33.92 233.82-33.92L233.82-33.92L233.82-33.92Q237.25-33.92 238.94-33.18L238.94-33.18L238.94-33.18Q240.64-32.45 241.66-31.23L241.66-31.23L241.66-31.23Q243.39-28.99 243.39-24.90L243.39-24.90L243.39-24.90Q243.39-20.86 241.66-12.48L241.66-12.48L241.66-12.48Q240.77-8.38 240.77-6.88L240.77-6.88L240.77-6.88Q240.77-5.38 241.63-4.48L241.63-4.48L241.63-4.48Q242.50-3.58 243.78-3.46L243.78-3.46L243.78-3.46Q243.14-1.28 240.93 0L240.93 0L240.93 0Q238.72 1.28 235.84 1.28ZM294.78 1.28L294.78 1.28L294.78 1.28Q287.04 1.28 287.04-4.74L287.04-4.74L287.04-4.74Q287.04-7.36 288.16-12.45L288.16-12.45L288.16-12.45Q289.28-17.54 289.66-19.58L289.66-19.58L289.66-19.58Q290.56-24.26 290.56-25.73L290.56-25.73L290.56-25.73Q290.56-28.99 288.13-28.99L288.13-28.99L288.13-28.99Q286.53-28.99 284.99-26.78L284.99-26.78L284.99-26.78Q283.46-24.58 282.75-20.16L282.75-20.16L278.78 0L266.30 1.28L269.76-16.13L269.76-16.13Q270.34-19.01 270.85-22.27L270.85-22.27L270.85-22.27Q271.36-25.54 271.36-26.05L271.36-26.05L271.36-26.05Q271.36-28.99 269.18-28.99L269.18-28.99L269.18-28.99Q267.71-28.99 266.11-26.82L266.11-26.82L266.11-26.82Q264.51-24.64 263.62-20.16L263.62-20.16L259.71 0L247.10 1.28L253.82-32.64L264.26-33.92L263.17-27.46L263.17-27.46Q264.83-30.91 267.90-32.42L267.90-32.42L267.90-32.42Q270.98-33.92 275.78-33.92L275.78-33.92L275.78-33.92Q278.53-33.92 280.32-32.58L280.32-32.58L280.32-32.58Q282.11-31.23 282.69-29.06L282.69-29.06L282.69-29.06Q283.78-31.30 286.56-32.61L286.56-32.61L286.56-32.61Q289.34-33.92 292.77-33.92L292.77-33.92L292.77-33.92Q296.19-33.92 297.89-33.18L297.89-33.18L297.89-33.18Q299.58-32.45 300.61-31.23L300.61-31.23L300.61-31.23Q302.34-28.99 302.34-24.90L302.34-24.90L302.34-24.90Q302.34-20.86 300.61-12.48L300.61-12.48L300.61-12.48Q299.71-8.38 299.71-6.88L299.71-6.88L299.71-6.88Q299.71-5.38 300.58-4.48L300.58-4.48L300.58-4.48Q301.44-3.58 302.72-3.46L302.72-3.46L302.72-3.46Q302.08-1.28 299.87 0L299.87 0L299.87 0Q297.66 1.28 294.78 1.28ZM310.43-1.92L310.43-1.92L310.43-1.92Q308.93-3.58 308.26-6.21L308.26-6.21L308.26-6.21Q307.58-8.83 307.58-13.12L307.58-13.12L307.58-13.12Q307.58-17.41 309.06-21.31L309.06-21.31L309.06-21.31Q310.53-25.22 313.22-28.03L313.22-28.03L313.22-28.03Q318.72-33.92 327.81-33.92L327.81-33.92L327.81-33.92Q331.07-33.92 333.44-32.83L333.44-32.83L344.38-33.92L339.65-8.96L339.65-8.96Q339.46-8.19 339.46-6.78L339.46-6.78L339.46-6.78Q339.46-5.38 340.32-4.48L340.32-4.48L340.32-4.48Q341.18-3.58 342.46-3.46L342.46-3.46L342.46-3.46Q341.82-1.28 339.49 0L339.49 0L339.49 0Q337.15 1.28 334.53 1.28L334.53 1.28L334.53 1.28Q331.90 1.28 330.14 0.29L330.14 0.29L330.14 0.29Q328.38-0.70 327.87-2.37L327.87-2.37L327.87-2.37Q326.85-0.77 324.67 0.26L324.67 0.26L324.67 0.26Q322.50 1.28 319.58 1.28L319.58 1.28L319.58 1.28Q316.67 1.28 314.30 0.51L314.30 0.51L314.30 0.51Q311.94-0.26 310.43-1.92ZM323.94-27.90L323.94-27.90L323.94-27.90Q323.20-26.75 322.56-24.80L322.56-24.80L322.56-24.80Q321.92-22.85 320.86-17.63L320.86-17.63L320.86-17.63Q319.81-12.42 319.81-8.70L319.81-8.70L319.81-8.70Q319.81-4.99 320.38-3.90L320.38-3.90L320.38-3.90Q320.96-2.82 321.98-2.82L321.98-2.82L321.98-2.82Q324.03-2.82 325.54-4.77L325.54-4.77L325.54-4.77Q327.04-6.72 327.62-10.18L327.62-10.18L331.01-28.93L331.01-28.93Q329.66-30.08 328.10-30.08L328.10-30.08L328.10-30.08Q326.53-30.08 325.60-29.57L325.60-29.57L325.60-29.57Q324.67-29.06 323.94-27.90ZM367.87-17.98L367.87-17.98L367.87-17.98Q370.18-22.08 370.18-26.24L370.18-26.24L370.18-26.24Q370.18-28.99 368.19-28.99L368.19-28.99L368.19-28.99Q366.66-28.99 365.06-26.37L365.06-26.37L365.06-26.37Q363.39-23.74 362.88-20.35L362.88-20.35L359.55 0L346.30 1.28L352.83-32.64L363.39-33.92L362.24-27.46L362.24-27.46Q365.38-33.92 372.42-33.92L372.42-33.92L372.42-33.92Q376.13-33.92 378.14-32L378.14-32L378.14-32Q380.16-30.08 380.16-26.14L380.16-26.14L380.16-26.14Q380.16-22.21 377.57-19.71L377.57-19.71L377.57-19.71Q374.98-17.22 370.56-17.22L370.56-17.22L370.56-17.22Q368.64-17.22 367.87-17.98ZM406.14-37.12L406.14-37.12L406.14-37.12Q407.04-38.66 407.04-40.32L407.04-40.32L407.04-40.32Q407.04-43.26 405.25-43.26L405.25-43.26L405.25-43.26Q402.50-43.26 401.34-37.63L401.34-37.63L400.38-32.64L406.21-32.64L405.82-29.76L399.81-29.76L394.05 0L381.12 1.28L387.26-29.76L382.72-29.76L383.30-32.64L387.78-32.64L389.12-37.70L389.12-37.70Q390.27-42.37 395.20-44.54L395.20-44.54L395.20-44.54Q398.78-46.08 404.80-46.08L404.80-46.08L404.80-46.08Q410.82-46.08 413.50-44.54L413.50-44.54L413.50-44.54Q416.19-43.01 416.19-40.96L416.19-40.96L416.19-40.96Q416.19-38.91 414.59-37.63L414.59-37.63L414.59-37.63Q412.99-36.35 411.20-36.35L411.20-36.35L411.20-36.35Q407.68-36.35 406.14-37.12ZM431.04-10.82L431.04-10.82L431.04-10.82Q432.64-9.73 432.64-7.33L432.64-7.33L432.64-7.33Q432.64-4.93 431.42-3.39L431.42-3.39L431.42-3.39Q430.21-1.86 428.22-0.83L428.22-0.83L428.22-0.83Q424.13 1.28 419.71 1.28L419.71 1.28L419.71 1.28Q415.30 1.28 412.70 0.32L412.70 0.32L412.70 0.32Q410.11-0.64 408.38-2.43L408.38-2.43L408.38-2.43Q404.99-5.82 404.99-12.03L404.99-12.03L404.99-12.03Q404.99-21.70 410.24-27.58L410.24-27.58L410.24-27.58Q415.87-33.92 425.66-33.92L425.66-33.92L425.66-33.92Q431.74-33.92 434.75-31.36L434.75-31.36L434.75-31.36Q436.99-29.44 436.99-26.30L436.99-26.30L436.99-26.30Q436.99-15.04 417.54-15.04L417.54-15.04L417.54-15.04Q417.28-13.38 417.28-11.97L417.28-11.97L417.28-11.97Q417.28-9.02 418.59-7.90L418.59-7.90L418.59-7.90Q419.90-6.78 422.34-6.78L422.34-6.78L422.34-6.78Q424.77-6.78 427.36-7.90L427.36-7.90L427.36-7.90Q429.95-9.02 431.04-10.82ZM417.98-17.79L417.98-17.79L417.98-17.79Q422.53-17.79 425.15-20.61L425.15-20.61L425.15-20.61Q427.78-23.30 427.78-27.58L427.78-27.58L427.78-27.58Q427.78-29.06 427.23-29.86L427.23-29.86L427.23-29.86Q426.69-30.66 425.60-30.66L425.60-30.66L425.60-30.66Q424.51-30.66 423.58-30.24L423.58-30.24L423.58-30.24Q422.66-29.82 421.70-28.42L421.70-28.42L421.70-28.42Q419.33-25.22 417.98-17.79ZM458.30-22.46L458.30-22.46L458.30-22.46Q459.20-24.83 459.20-26.88L459.20-26.88L459.20-26.88Q459.20-30.66 456.13-30.66L456.13-30.66L456.13-30.66Q454.53-30.66 453.22-29.22L453.22-29.22L453.22-29.22Q451.90-27.78 451.90-25.98L451.90-25.98L451.90-25.98Q451.90-24.70 452.93-23.68L452.93-23.68L452.93-23.68Q454.40-22.27 458.18-19.97L458.18-19.97L458.18-19.97Q461.95-17.66 463.39-15.78L463.39-15.78L463.39-15.78Q464.83-13.89 464.83-11.30L464.83-11.30L464.83-11.30Q464.83-8.70 463.58-6.34L463.58-6.34L463.58-6.34Q462.34-3.97 460.10-2.30L460.10-2.30L460.10-2.30Q455.30 1.28 447.62 1.28L447.62 1.28L447.62 1.28Q443.46 1.28 440.26-0.90L440.26-0.90L440.26-0.90Q437.06-3.01 437.06-5.50L437.06-5.50L437.06-5.50Q437.06-8 438.88-9.47L438.88-9.47L438.88-9.47Q440.70-10.94 443.39-10.94L443.39-10.94L443.39-10.94Q446.08-10.94 447.74-9.92L447.74-9.92L447.74-9.92Q446.91-7.81 446.91-6.40L446.91-6.40L446.91-6.40Q446.91-2.18 450.50-2.18L450.50-2.18L450.50-2.18Q452.03-2.18 453.06-3.14L453.06-3.14L453.06-3.14Q454.08-4.10 454.08-5.76L454.08-5.76L454.08-5.76Q454.08-9.02 448.58-12.48L448.58-12.48L448.58-12.48Q444.10-15.42 443.07-16.58L443.07-16.58L443.07-16.58Q441.34-18.62 441.34-21.18L441.34-21.18L441.34-21.18Q441.34-23.74 442.56-26.18L442.56-26.18L442.56-26.18Q443.78-28.61 446.02-30.34L446.02-30.34L446.02-30.34Q450.69-33.92 458.82-33.92L458.82-33.92L458.82-33.92Q462.98-33.92 465.44-32.26L465.44-32.26L465.44-32.26Q467.90-30.59 467.90-27.78L467.90-27.78L467.90-27.78Q467.90-24.96 466.21-23.36L466.21-23.36L466.21-23.36Q464.51-21.76 461.44-21.76L461.44-21.76L461.44-21.76Q459.33-21.76 458.30-22.46ZM471.30-6.40L471.30-6.40L471.30-6.40Q471.30-8.13 472.19-12.48L472.19-12.48L475.58-29.76L471.81-29.76L472.06-31.68L472.06-31.68Q479.74-33.98 487.17-39.62L487.17-39.62L490.24-39.62L488.70-32.64L493.70-32.64L493.12-29.76L488.19-29.76L484.93-12.48L484.93-12.48Q484.10-8.51 484.10-7.17L484.10-7.17L484.10-7.17Q484.10-4.10 486.78-3.46L486.78-3.46L486.78-3.46Q486.14-1.28 483.84 0L483.84 0L483.84 0Q481.54 1.28 478.27 1.28L478.27 1.28L478.27 1.28Q475.01 1.28 473.15-0.77L473.15-0.77L473.15-0.77Q471.30-2.82 471.30-6.40Z" fill="#444"></path></g></g><style>text {
  font-size: 64px;
  font-family: Arial Black;
  dominant-baseline: central;
  text-anchor: middle;
}</style></svg>